<svg xmlns="http://www.w3.org/2000/svg" xmlns:xlink="http://www.w3.org/1999/xlink" viewBox="0 0 293.26 254.51">
  <defs>
    <style>
      .cls-1 {
        isolation: isolate;
      }

      .cls-2 {
        fill: #50a397;
      }

      .cls-3 {
        fill: #bf9c4e;
      }

      .cls-4 {
        fill: #ebdfc6;
      }

      .cls-10, .cls-11, .cls-12, .cls-17, .cls-18, .cls-4, .cls-7, .cls-8, .cls-9 {
        mix-blend-mode: multiply;
      }

      .cls-5 {
        fill: #fcde16;
      }

      .cls-6 {
        fill: #fdeb73;
      }

      .cls-7 {
        fill: #e2d2b0;
      }

      .cls-8 {
        fill: #d5be8a;
      }

      .cls-9 {
        fill: #dcc99e;
      }

      .cls-10 {
        fill: #cdb275;
      }

      .cls-11 {
        fill: #e5d7b8;
      }

      .cls-12 {
        fill: #eee5d1;
      }

      .cls-13 {
        fill: #fde961;
      }

      .cls-13, .cls-14, .cls-16 {
        mix-blend-mode: overlay;
      }

      .cls-14 {
        fill: #fef6be;
      }

      .cls-15 {
        fill: #fff;
      }

      .cls-16 {
        fill: #fdee84;
      }

      .cls-17 {
        fill: #dfcda7;
      }

      .cls-19 {
        fill: #9b771e;
      }

      .cls-20, .cls-22, .cls-27 {
        fill: none;
      }

      .cls-20 {
        stroke: #9b771e;
      }

      .cls-20, .cls-22 {
        stroke-miterlimit: 10;
        stroke-width: 2px;
      }

      .cls-21 {
        fill: #fce230;
      }

      .cls-22 {
        stroke: #fce230;
      }

      .cls-23 {
        fill: #f2a0a0;
      }

      .cls-23, .cls-24, .cls-25, .cls-26, .cls-27, .cls-28, .cls-30, .cls-31, .cls-32 {
        fill-rule: evenodd;
      }

      .cls-24 {
        fill: #ffcccb;
      }

      .cls-25 {
        fill: #fcb7b6;
      }

      .cls-26 {
        fill: #212121;
      }

      .cls-27 {
        stroke: #6e3c41;
        stroke-linecap: round;
        stroke-linejoin: round;
        stroke-width: 2.4px;
      }

      .cls-28 {
        fill: #fce0e5;
      }

      .cls-29 {
        fill: #943241;
      }

      .cls-30 {
        fill: #ff999a;
      }

      .cls-31 {
        fill: url(#linear-gradient);
      }

      .cls-32 {
        fill: url(#linear-gradient-2);
      }
    </style>
    <linearGradient id="linear-gradient" x1="131.07" y1="86.85" x2="187.61" y2="106.68" gradientUnits="userSpaceOnUse">
      <stop offset="0" stop-color="#fff"/>
      <stop offset="1"/>
    </linearGradient>
    <linearGradient id="linear-gradient-2" x1="75.7" y1="86.85" x2="132.25" y2="106.68" xlink:href="#linear-gradient"/>
  </defs>
  <g class="cls-1">
    <g id="Layer_2" data-name="Layer 2">
      <g id="OBJECTS">
        <g>
          <circle class="cls-2" cx="146.88" cy="105.57" r="105.57"/>
          <g>
            <g>
              <g>
                <g>
                  <rect class="cls-3" x="76.83" y="107.71" width="47.27" height="9.28"/>
                  <rect class="cls-4" x="76.83" y="107.71" width="47.27" height="9.28"/>
                  <g>
                    <rect class="cls-5" x="87.56" y="108.68" width="2.76" height="7.33"/>
                    <rect class="cls-5" x="91.4" y="108.68" width="2.76" height="7.33"/>
                    <rect class="cls-5" x="95.24" y="108.68" width="2.76" height="7.33"/>
                    <rect class="cls-5" x="99.09" y="108.68" width="2.76" height="7.33"/>
                    <rect class="cls-5" x="79.87" y="108.68" width="2.76" height="7.33"/>
                    <rect class="cls-5" x="83.71" y="108.68" width="2.76" height="7.33"/>
                    <rect class="cls-5" x="76.83" y="108.68" width="1.96" height="7.33"/>
                    <rect class="cls-5" x="118.3" y="108.68" width="2.76" height="7.33"/>
                    <rect class="cls-5" x="122.15" y="108.68" width="1.96" height="7.33"/>
                    <rect class="cls-5" x="114.46" y="108.68" width="2.76" height="7.33"/>
                    <rect class="cls-6" x="106.77" y="108.68" width="2.76" height="7.33"/>
                    <rect class="cls-6" x="102.93" y="108.68" width="2.76" height="7.33"/>
                    <rect class="cls-5" x="110.62" y="108.68" width="2.76" height="7.33"/>
                  </g>
                  <rect class="cls-7" x="87.56" y="108.68" width="2.76" height="7.33"/>
                  <rect class="cls-8" x="79.87" y="108.68" width="2.76" height="7.33"/>
                  <rect class="cls-9" x="83.71" y="108.68" width="2.76" height="7.33"/>
                  <rect class="cls-10" x="76.83" y="108.68" width="1.96" height="7.33"/>
                  <rect class="cls-7" x="122.15" y="108.68" width="1.96" height="7.33"/>
                  <rect class="cls-11" x="91.4" y="108.68" width="2.76" height="7.33"/>
                </g>
                <rect class="cls-12" x="106.77" y="108.68" width="2.76" height="7.33"/>
                <rect class="cls-12" x="102.93" y="108.68" width="2.76" height="7.33"/>
                <rect class="cls-13" x="106.77" y="108.68" width="2.76" height="7.33"/>
                <rect class="cls-13" x="102.93" y="108.68" width="2.76" height="7.33"/>
                <rect class="cls-12" x="110.62" y="108.68" width="2.76" height="7.33"/>
                <rect class="cls-13" x="110.62" y="108.68" width="2.76" height="7.33"/>
              </g>
              <rect class="cls-14" x="98.81" y="108.68" width="0.27" height="7.33"/>
              <rect class="cls-15" x="102.65" y="108.68" width="0.27" height="7.33"/>
              <rect class="cls-15" x="106.5" y="108.68" width="0.27" height="7.33"/>
              <rect class="cls-15" x="110.34" y="108.68" width="0.27" height="7.33"/>
              <rect class="cls-14" x="114.18" y="108.68" width="0.27" height="7.33"/>
              <rect class="cls-16" x="118.03" y="108.68" width="0.27" height="7.33"/>
              <rect class="cls-16" x="121.87" y="108.68" width="0.27" height="7.33"/>
              <rect class="cls-16" x="91.12" y="108.68" width="0.27" height="7.33"/>
              <rect class="cls-16" x="87.28" y="108.68" width="0.27" height="7.33"/>
              <rect class="cls-16" x="94.97" y="108.68" width="0.27" height="7.33"/>
              <rect class="cls-16" x="83.44" y="108.68" width="0.27" height="7.33"/>
              <rect class="cls-16" x="79.59" y="108.68" width="0.27" height="7.33"/>
            </g>
            <g>
              <g>
                <g>
                  <rect class="cls-3" x="68.41" y="117.02" width="47.27" height="9.28"/>
                  <rect class="cls-4" x="68.41" y="117.02" width="47.27" height="9.28"/>
                  <g>
                    <rect class="cls-5" x="79.13" y="117.99" width="2.76" height="7.33"/>
                    <rect class="cls-5" x="82.98" y="117.99" width="2.76" height="7.33"/>
                    <rect class="cls-5" x="86.82" y="117.99" width="2.76" height="7.33"/>
                    <rect class="cls-5" x="90.66" y="117.99" width="2.76" height="7.33"/>
                    <rect class="cls-5" x="71.45" y="117.99" width="2.76" height="7.33"/>
                    <rect class="cls-5" x="75.29" y="117.99" width="2.76" height="7.33"/>
                    <rect class="cls-5" x="68.41" y="117.99" width="1.96" height="7.33"/>
                    <rect class="cls-5" x="109.88" y="117.99" width="2.76" height="7.33"/>
                    <rect class="cls-5" x="113.72" y="117.99" width="1.96" height="7.33"/>
                    <rect class="cls-5" x="106.04" y="117.99" width="2.76" height="7.33"/>
                    <rect class="cls-6" x="98.35" y="117.99" width="2.76" height="7.33"/>
                    <rect class="cls-6" x="94.51" y="117.99" width="2.76" height="7.33"/>
                    <rect class="cls-5" x="102.19" y="117.99" width="2.76" height="7.33"/>
                  </g>
                  <rect class="cls-7" x="79.13" y="117.99" width="2.76" height="7.33"/>
                  <rect class="cls-8" x="71.45" y="117.99" width="2.76" height="7.33"/>
                  <rect class="cls-9" x="75.29" y="117.99" width="2.76" height="7.33"/>
                  <rect class="cls-10" x="68.41" y="117.99" width="1.96" height="7.33"/>
                  <rect class="cls-7" x="113.72" y="117.99" width="1.96" height="7.33"/>
                  <rect class="cls-11" x="82.98" y="117.99" width="2.76" height="7.33"/>
                </g>
                <rect class="cls-12" x="98.35" y="117.99" width="2.76" height="7.33"/>
                <rect class="cls-12" x="94.51" y="117.99" width="2.76" height="7.33"/>
                <rect class="cls-13" x="98.35" y="117.99" width="2.76" height="7.33"/>
                <rect class="cls-13" x="94.51" y="117.99" width="2.76" height="7.33"/>
                <rect class="cls-12" x="102.19" y="117.99" width="2.76" height="7.33"/>
                <rect class="cls-13" x="102.19" y="117.99" width="2.76" height="7.33"/>
              </g>
              <rect class="cls-14" x="90.39" y="117.99" width="0.27" height="7.33"/>
              <rect class="cls-15" x="94.23" y="117.99" width="0.27" height="7.33"/>
              <rect class="cls-15" x="98.08" y="117.99" width="0.27" height="7.33"/>
              <rect class="cls-15" x="101.92" y="117.99" width="0.27" height="7.33"/>
              <rect class="cls-14" x="105.76" y="117.99" width="0.27" height="7.33"/>
              <rect class="cls-16" x="109.6" y="117.99" width="0.27" height="7.33"/>
              <rect class="cls-16" x="113.45" y="117.99" width="0.27" height="7.33"/>
              <rect class="cls-16" x="82.7" y="117.99" width="0.27" height="7.33"/>
              <rect class="cls-16" x="78.86" y="117.99" width="0.27" height="7.33"/>
              <rect class="cls-16" x="86.55" y="117.99" width="0.27" height="7.33"/>
              <rect class="cls-16" x="75.02" y="117.99" width="0.27" height="7.33"/>
              <rect class="cls-16" x="71.17" y="117.99" width="0.27" height="7.33"/>
            </g>
            <g>
              <g>
                <g>
                  <rect class="cls-3" x="71.06" y="126.3" width="47.27" height="9.28"/>
                  <rect class="cls-4" x="71.06" y="126.3" width="47.27" height="9.28"/>
                  <g>
                    <rect class="cls-5" x="81.79" y="127.28" width="2.76" height="7.33"/>
                    <rect class="cls-5" x="85.63" y="127.28" width="2.76" height="7.33"/>
                    <rect class="cls-5" x="89.47" y="127.28" width="2.76" height="7.33"/>
                    <rect class="cls-5" x="93.32" y="127.28" width="2.76" height="7.33"/>
                    <rect class="cls-5" x="74.1" y="127.28" width="2.76" height="7.33"/>
                    <rect class="cls-5" x="77.94" y="127.28" width="2.76" height="7.33"/>
                    <rect class="cls-5" x="71.06" y="127.28" width="1.96" height="7.33"/>
                    <rect class="cls-5" x="112.53" y="127.28" width="2.76" height="7.33"/>
                    <rect class="cls-5" x="116.38" y="127.28" width="1.96" height="7.33"/>
                    <rect class="cls-5" x="108.69" y="127.28" width="2.76" height="7.33"/>
                    <rect class="cls-6" x="101" y="127.28" width="2.76" height="7.33"/>
                    <rect class="cls-6" x="97.16" y="127.28" width="2.76" height="7.33"/>
                    <rect class="cls-5" x="104.85" y="127.28" width="2.76" height="7.33"/>
                  </g>
                  <rect class="cls-7" x="81.79" y="127.28" width="2.76" height="7.33"/>
                  <rect class="cls-8" x="74.1" y="127.28" width="2.76" height="7.33"/>
                  <rect class="cls-9" x="77.94" y="127.28" width="2.76" height="7.33"/>
                  <rect class="cls-10" x="71.06" y="127.28" width="1.96" height="7.33"/>
                  <rect class="cls-7" x="116.38" y="127.28" width="1.96" height="7.33"/>
                  <rect class="cls-11" x="85.63" y="127.28" width="2.76" height="7.33"/>
                </g>
                <rect class="cls-12" x="101" y="127.28" width="2.76" height="7.33"/>
                <rect class="cls-12" x="97.16" y="127.28" width="2.76" height="7.33"/>
                <rect class="cls-13" x="101" y="127.28" width="2.76" height="7.33"/>
                <rect class="cls-13" x="97.16" y="127.28" width="2.76" height="7.33"/>
                <rect class="cls-12" x="104.85" y="127.28" width="2.76" height="7.33"/>
                <rect class="cls-13" x="104.85" y="127.28" width="2.76" height="7.33"/>
              </g>
              <rect class="cls-14" x="93.04" y="127.28" width="0.27" height="7.33"/>
              <rect class="cls-15" x="96.88" y="127.28" width="0.27" height="7.33"/>
              <rect class="cls-15" x="100.73" y="127.28" width="0.27" height="7.33"/>
              <rect class="cls-15" x="104.57" y="127.28" width="0.27" height="7.33"/>
              <rect class="cls-14" x="108.41" y="127.28" width="0.27" height="7.33"/>
              <rect class="cls-16" x="112.26" y="127.28" width="0.27" height="7.33"/>
              <rect class="cls-16" x="116.1" y="127.28" width="0.27" height="7.33"/>
              <rect class="cls-16" x="85.35" y="127.28" width="0.27" height="7.33"/>
              <rect class="cls-16" x="81.51" y="127.28" width="0.27" height="7.33"/>
              <rect class="cls-16" x="89.2" y="127.28" width="0.27" height="7.33"/>
              <rect class="cls-16" x="77.67" y="127.28" width="0.27" height="7.33"/>
              <rect class="cls-16" x="73.82" y="127.28" width="0.27" height="7.33"/>
            </g>
            <g>
              <g>
                <g>
                  <rect class="cls-3" x="79.56" y="135.65" width="47.27" height="9.28"/>
                  <rect class="cls-4" x="79.56" y="135.65" width="47.27" height="9.28"/>
                  <g>
                    <rect class="cls-5" x="90.28" y="136.62" width="2.76" height="7.33"/>
                    <rect class="cls-5" x="94.13" y="136.62" width="2.76" height="7.33"/>
                    <rect class="cls-5" x="97.97" y="136.62" width="2.76" height="7.33"/>
                    <rect class="cls-5" x="101.81" y="136.62" width="2.76" height="7.33"/>
                    <rect class="cls-5" x="82.6" y="136.62" width="2.76" height="7.33"/>
                    <rect class="cls-5" x="86.44" y="136.62" width="2.76" height="7.33"/>
                    <rect class="cls-5" x="79.56" y="136.62" width="1.96" height="7.33"/>
                    <rect class="cls-5" x="121.03" y="136.62" width="2.76" height="7.33"/>
                    <rect class="cls-5" x="124.87" y="136.62" width="1.96" height="7.33"/>
                    <rect class="cls-5" x="117.19" y="136.62" width="2.76" height="7.33"/>
                    <rect class="cls-6" x="109.5" y="136.62" width="2.76" height="7.33"/>
                    <rect class="cls-6" x="105.66" y="136.62" width="2.76" height="7.33"/>
                    <rect class="cls-5" x="113.34" y="136.62" width="2.76" height="7.33"/>
                  </g>
                  <rect class="cls-7" x="90.28" y="136.62" width="2.76" height="7.33"/>
                  <rect class="cls-8" x="82.6" y="136.62" width="2.76" height="7.33"/>
                  <rect class="cls-9" x="86.44" y="136.62" width="2.76" height="7.33"/>
                  <rect class="cls-10" x="79.56" y="136.62" width="1.96" height="7.33"/>
                  <rect class="cls-7" x="124.87" y="136.62" width="1.96" height="7.33"/>
                  <rect class="cls-11" x="94.13" y="136.62" width="2.76" height="7.33"/>
                </g>
                <rect class="cls-12" x="109.5" y="136.62" width="2.76" height="7.33"/>
                <rect class="cls-12" x="105.66" y="136.62" width="2.76" height="7.33"/>
                <rect class="cls-13" x="109.5" y="136.62" width="2.76" height="7.33"/>
                <rect class="cls-13" x="105.66" y="136.62" width="2.76" height="7.33"/>
                <rect class="cls-12" x="113.34" y="136.62" width="2.76" height="7.33"/>
                <rect class="cls-13" x="113.34" y="136.62" width="2.76" height="7.33"/>
              </g>
              <rect class="cls-14" x="101.54" y="136.62" width="0.27" height="7.33"/>
              <rect class="cls-15" x="105.38" y="136.62" width="0.27" height="7.33"/>
              <rect class="cls-15" x="109.22" y="136.62" width="0.27" height="7.33"/>
              <rect class="cls-15" x="113.07" y="136.62" width="0.27" height="7.33"/>
              <rect class="cls-14" x="116.91" y="136.62" width="0.27" height="7.33"/>
              <rect class="cls-16" x="120.75" y="136.62" width="0.27" height="7.33"/>
              <rect class="cls-16" x="124.6" y="136.62" width="0.27" height="7.33"/>
              <rect class="cls-16" x="93.85" y="136.62" width="0.27" height="7.33"/>
              <rect class="cls-16" x="90.01" y="136.62" width="0.27" height="7.33"/>
              <rect class="cls-16" x="97.69" y="136.62" width="0.27" height="7.33"/>
              <rect class="cls-16" x="86.17" y="136.62" width="0.27" height="7.33"/>
              <rect class="cls-16" x="82.32" y="136.62" width="0.27" height="7.33"/>
            </g>
            <g>
              <g>
                <g>
                  <rect class="cls-3" x="72.85" y="144.93" width="47.27" height="9.28"/>
                  <rect class="cls-4" x="72.85" y="144.93" width="47.27" height="9.28"/>
                  <g>
                    <rect class="cls-5" x="83.58" y="145.9" width="2.76" height="7.33"/>
                    <rect class="cls-5" x="87.42" y="145.9" width="2.76" height="7.33"/>
                    <rect class="cls-5" x="91.26" y="145.9" width="2.76" height="7.33"/>
                    <rect class="cls-5" x="95.11" y="145.9" width="2.76" height="7.33"/>
                    <rect class="cls-5" x="75.89" y="145.9" width="2.76" height="7.33"/>
                    <rect class="cls-5" x="79.73" y="145.9" width="2.76" height="7.33"/>
                    <rect class="cls-5" x="72.85" y="145.9" width="1.96" height="7.33"/>
                    <rect class="cls-5" x="114.32" y="145.9" width="2.76" height="7.33"/>
                    <rect class="cls-5" x="118.17" y="145.9" width="1.96" height="7.33"/>
                    <rect class="cls-5" x="110.48" y="145.9" width="2.76" height="7.33"/>
                    <rect class="cls-6" x="102.79" y="145.9" width="2.76" height="7.33"/>
                    <rect class="cls-6" x="98.95" y="145.9" width="2.76" height="7.33"/>
                    <rect class="cls-5" x="106.64" y="145.9" width="2.76" height="7.33"/>
                  </g>
                  <rect class="cls-7" x="83.58" y="145.9" width="2.76" height="7.33"/>
                  <rect class="cls-8" x="75.89" y="145.9" width="2.76" height="7.33"/>
                  <rect class="cls-9" x="79.73" y="145.9" width="2.76" height="7.33"/>
                  <rect class="cls-10" x="72.85" y="145.9" width="1.96" height="7.33"/>
                  <rect class="cls-7" x="118.17" y="145.9" width="1.96" height="7.33"/>
                  <rect class="cls-11" x="87.42" y="145.9" width="2.76" height="7.33"/>
                </g>
                <rect class="cls-12" x="102.79" y="145.9" width="2.76" height="7.33"/>
                <rect class="cls-12" x="98.95" y="145.9" width="2.76" height="7.33"/>
                <rect class="cls-13" x="102.79" y="145.9" width="2.76" height="7.33"/>
                <rect class="cls-13" x="98.95" y="145.9" width="2.76" height="7.33"/>
                <rect class="cls-12" x="106.64" y="145.9" width="2.76" height="7.33"/>
                <rect class="cls-13" x="106.64" y="145.9" width="2.76" height="7.33"/>
              </g>
              <rect class="cls-14" x="94.83" y="145.9" width="0.27" height="7.33"/>
              <rect class="cls-15" x="98.67" y="145.9" width="0.27" height="7.33"/>
              <rect class="cls-15" x="102.52" y="145.9" width="0.27" height="7.33"/>
              <rect class="cls-15" x="106.36" y="145.9" width="0.27" height="7.33"/>
              <rect class="cls-14" x="110.2" y="145.9" width="0.27" height="7.33"/>
              <rect class="cls-16" x="114.05" y="145.9" width="0.27" height="7.33"/>
              <rect class="cls-16" x="117.89" y="145.9" width="0.27" height="7.33"/>
              <rect class="cls-16" x="87.14" y="145.9" width="0.27" height="7.33"/>
              <rect class="cls-16" x="83.3" y="145.9" width="0.27" height="7.33"/>
              <rect class="cls-16" x="90.99" y="145.9" width="0.27" height="7.33"/>
              <rect class="cls-16" x="79.46" y="145.9" width="0.27" height="7.33"/>
              <rect class="cls-16" x="75.61" y="145.9" width="0.27" height="7.33"/>
            </g>
            <g>
              <g>
                <g>
                  <rect class="cls-3" x="79.01" y="154.24" width="47.27" height="9.28"/>
                  <rect class="cls-4" x="79.01" y="154.24" width="47.27" height="9.28"/>
                  <g>
                    <rect class="cls-5" x="89.74" y="155.21" width="2.76" height="7.33"/>
                    <rect class="cls-5" x="93.59" y="155.21" width="2.76" height="7.33"/>
                    <rect class="cls-5" x="97.43" y="155.21" width="2.76" height="7.33"/>
                    <rect class="cls-5" x="101.27" y="155.21" width="2.76" height="7.33"/>
                    <rect class="cls-5" x="82.06" y="155.21" width="2.76" height="7.33"/>
                    <rect class="cls-5" x="85.9" y="155.21" width="2.76" height="7.33"/>
                    <rect class="cls-5" x="79.01" y="155.21" width="1.96" height="7.33"/>
                    <rect class="cls-5" x="120.49" y="155.21" width="2.76" height="7.33"/>
                    <rect class="cls-5" x="124.33" y="155.21" width="1.96" height="7.33"/>
                    <rect class="cls-5" x="116.64" y="155.21" width="2.76" height="7.33"/>
                    <rect class="cls-6" x="108.96" y="155.21" width="2.76" height="7.33"/>
                    <rect class="cls-6" x="105.12" y="155.21" width="2.76" height="7.33"/>
                    <rect class="cls-5" x="112.8" y="155.21" width="2.76" height="7.33"/>
                  </g>
                  <rect class="cls-7" x="89.74" y="155.21" width="2.76" height="7.33"/>
                  <rect class="cls-8" x="82.06" y="155.21" width="2.76" height="7.33"/>
                  <rect class="cls-9" x="85.9" y="155.21" width="2.76" height="7.33"/>
                  <rect class="cls-10" x="79.01" y="155.21" width="1.96" height="7.33"/>
                  <rect class="cls-7" x="124.33" y="155.21" width="1.96" height="7.33"/>
                  <rect class="cls-11" x="93.59" y="155.21" width="2.76" height="7.33"/>
                </g>
                <rect class="cls-12" x="108.96" y="155.21" width="2.76" height="7.33"/>
                <rect class="cls-12" x="105.12" y="155.21" width="2.76" height="7.33"/>
                <rect class="cls-13" x="108.96" y="155.21" width="2.76" height="7.33"/>
                <rect class="cls-13" x="105.12" y="155.21" width="2.76" height="7.33"/>
                <rect class="cls-12" x="112.8" y="155.21" width="2.76" height="7.33"/>
                <rect class="cls-13" x="112.8" y="155.21" width="2.76" height="7.33"/>
              </g>
              <rect class="cls-14" x="101" y="155.21" width="0.27" height="7.33"/>
              <rect class="cls-15" x="104.84" y="155.21" width="0.27" height="7.33"/>
              <rect class="cls-15" x="108.68" y="155.21" width="0.27" height="7.33"/>
              <rect class="cls-15" x="112.53" y="155.21" width="0.27" height="7.33"/>
              <rect class="cls-14" x="116.37" y="155.21" width="0.27" height="7.33"/>
              <rect class="cls-16" x="120.21" y="155.21" width="0.27" height="7.33"/>
              <rect class="cls-16" x="124.06" y="155.21" width="0.27" height="7.33"/>
              <rect class="cls-16" x="93.31" y="155.21" width="0.27" height="7.33"/>
              <rect class="cls-16" x="89.47" y="155.21" width="0.27" height="7.33"/>
              <rect class="cls-16" x="97.15" y="155.21" width="0.27" height="7.33"/>
              <rect class="cls-16" x="85.62" y="155.21" width="0.27" height="7.33"/>
              <rect class="cls-16" x="81.78" y="155.21" width="0.27" height="7.33"/>
            </g>
            <g>
              <g>
                <g>
                  <rect class="cls-3" x="71.83" y="163.54" width="47.27" height="9.28"/>
                  <rect class="cls-4" x="71.83" y="163.54" width="47.27" height="9.28"/>
                  <g>
                    <rect class="cls-5" x="82.56" y="164.51" width="2.76" height="7.33"/>
                    <rect class="cls-5" x="86.4" y="164.51" width="2.76" height="7.33"/>
                    <rect class="cls-5" x="90.25" y="164.51" width="2.76" height="7.33"/>
                    <rect class="cls-5" x="94.09" y="164.51" width="2.76" height="7.33"/>
                    <rect class="cls-5" x="74.87" y="164.51" width="2.76" height="7.33"/>
                    <rect class="cls-5" x="78.72" y="164.51" width="2.76" height="7.33"/>
                    <rect class="cls-5" x="71.83" y="164.51" width="1.96" height="7.33"/>
                    <rect class="cls-5" x="113.31" y="164.51" width="2.76" height="7.33"/>
                    <rect class="cls-5" x="117.15" y="164.51" width="1.96" height="7.33"/>
                    <rect class="cls-5" x="109.46" y="164.51" width="2.76" height="7.33"/>
                    <rect class="cls-6" x="101.78" y="164.51" width="2.76" height="7.33"/>
                    <rect class="cls-6" x="97.93" y="164.51" width="2.76" height="7.33"/>
                    <rect class="cls-5" x="105.62" y="164.51" width="2.76" height="7.33"/>
                  </g>
                  <rect class="cls-7" x="82.56" y="164.51" width="2.76" height="7.33"/>
                  <rect class="cls-8" x="74.87" y="164.51" width="2.76" height="7.33"/>
                  <rect class="cls-9" x="78.72" y="164.51" width="2.76" height="7.33"/>
                  <rect class="cls-10" x="71.83" y="164.51" width="1.96" height="7.33"/>
                  <rect class="cls-7" x="117.15" y="164.51" width="1.96" height="7.33"/>
                  <rect class="cls-11" x="86.4" y="164.51" width="2.76" height="7.33"/>
                </g>
                <rect class="cls-12" x="101.78" y="164.51" width="2.76" height="7.33"/>
                <rect class="cls-12" x="97.93" y="164.51" width="2.76" height="7.33"/>
                <rect class="cls-13" x="101.78" y="164.51" width="2.76" height="7.33"/>
                <rect class="cls-13" x="97.93" y="164.51" width="2.76" height="7.33"/>
                <rect class="cls-12" x="105.62" y="164.51" width="2.76" height="7.33"/>
                <rect class="cls-13" x="105.62" y="164.51" width="2.76" height="7.33"/>
              </g>
              <rect class="cls-14" x="93.81" y="164.51" width="0.27" height="7.33"/>
              <rect class="cls-15" x="97.66" y="164.51" width="0.27" height="7.33"/>
              <rect class="cls-15" x="101.5" y="164.51" width="0.27" height="7.33"/>
              <rect class="cls-15" x="105.34" y="164.51" width="0.27" height="7.33"/>
              <rect class="cls-14" x="109.19" y="164.51" width="0.27" height="7.33"/>
              <rect class="cls-16" x="113.03" y="164.51" width="0.27" height="7.33"/>
              <rect class="cls-16" x="116.87" y="164.51" width="0.27" height="7.33"/>
              <rect class="cls-16" x="86.13" y="164.51" width="0.27" height="7.33"/>
              <rect class="cls-16" x="82.28" y="164.51" width="0.27" height="7.33"/>
              <rect class="cls-16" x="89.97" y="164.51" width="0.27" height="7.33"/>
              <rect class="cls-16" x="78.44" y="164.51" width="0.27" height="7.33"/>
              <rect class="cls-16" x="74.6" y="164.51" width="0.27" height="7.33"/>
            </g>
          </g>
          <g>
            <circle class="cls-3" cx="146.8" cy="83.42" r="23.43" transform="translate(46.59 219.32) rotate(-83.2)"/>
            <circle class="cls-5" cx="146.8" cy="83.42" r="22.77" transform="translate(35.44 210.35) rotate(-78.34)"/>
            <path class="cls-12" d="M163.2,67.62l-4.12,4a17.05,17.05,0,1,1-24.55,23.67l-4.12,4A22.77,22.77,0,0,0,163.2,67.62Z"/>
            <circle class="cls-9" cx="146.8" cy="83.42" r="17.05" transform="matrix(0.16, -0.99, 0.99, 0.16, 40.41, 214.54)"/>
            <path class="cls-17" d="M131.21,84.78a17,17,0,0,1,27.9-13.16,17.05,17.05,0,1,0-23.15,25A17,17,0,0,1,131.21,84.78Z"/>
            <path class="cls-13" d="M159.32,71.84a17.05,17.05,0,0,1-24.1,24.1,17.05,17.05,0,1,0,24.1-24.1Z"/>
          </g>
          <g>
            <g>
              <circle class="cls-3" cx="149" cy="28.65" r="23.43" transform="translate(102.92 173.21) rotate(-83.2)"/>
              <circle class="cls-5" cx="149" cy="28.65" r="22.77" transform="translate(90.84 168.78) rotate(-78.34)"/>
              <path class="cls-12" d="M165.39,12.84l-4.12,4a17.05,17.05,0,1,1-24.55,23.67l-4.12,4a22.77,22.77,0,1,0,32.79-31.61Z"/>
              <circle class="cls-9" cx="149" cy="28.65" r="17.05" transform="translate(96.28 170.92) rotate(-80.55)"/>
              <path class="cls-17" d="M133.4,30a17.06,17.06,0,0,1,27.9-13.16,17.05,17.05,0,1,0-23.15,25A17,17,0,0,1,133.4,30Z"/>
              <path class="cls-13" d="M161.51,17.07a17,17,0,0,1-24.09,24.09,17,17,0,1,0,24.09-24.09Z"/>
            </g>
            <g>
              <g class="cls-18">
                <path class="cls-19" d="M146.08,33.18c.41,1.88,1.7,2.71,3.77,2.71s3-.86,3-2.23c0-1.53-.87-2.19-3.93-2.94-4.87-1.2-6.07-3.06-6.07-5.59,0-3.28,2.33-5.5,6.57-5.5,4.75,0,6.64,2.68,6.9,5.43h-3.9c-.18-1.16-.79-2.41-3.1-2.41-1.57,0-2.52.68-2.52,2s.76,1.84,3.65,2.54c5.21,1.29,6.35,3.32,6.35,6,0,3.42-2.48,5.78-7.2,5.78-4.55,0-6.94-2.35-7.37-5.77Z"/>
                <line class="cls-20" x1="149.69" y1="17.02" x2="149.45" y2="41.54"/>
              </g>
              <g>
                <path class="cls-21" d="M145.72,32.93c.4,1.89,1.69,2.72,3.77,2.72s2.94-.86,2.94-2.23c0-1.53-.86-2.2-3.92-2.94-4.87-1.2-6.07-3.06-6.07-5.6,0-3.27,2.33-5.49,6.57-5.49,4.75,0,6.64,2.68,6.9,5.42H152c-.19-1.15-.8-2.41-3.1-2.41-1.57,0-2.52.68-2.52,2s.76,1.83,3.65,2.54c5.2,1.28,6.34,3.32,6.34,6,0,3.43-2.47,5.78-7.2,5.78-4.54,0-6.93-2.34-7.36-5.77Z"/>
                <line class="cls-22" x1="149.33" y1="16.78" x2="149.08" y2="41.29"/>
              </g>
            </g>
          </g>
          <path class="cls-23" d="M110.44,107.83c-16,3-17.68,69.91,39,67.23,41.93-2,54.55-37,36.14-58.67-10.76-12.68-28.33-11.49-39.42,0C138.87,124,122.09,105.63,110.44,107.83Z"/>
          <g>
            <path class="cls-24" d="M123.61,183.2c4-7.69,13.66-41.13,19.78-69.14-7-4.51-39.71,27.57-47.32,32.64,8,10.12,9.62,28.76,8.36,36.5-.8,4.91,6.27-.19,9.95-.16S120.59,189,123.61,183.2Z"/>
            <path class="cls-25" d="M123.61,183.2c3-5.79,17.35-44.85,12.3-58.41-6.55,29.14-12.78,43.94-21.43,58.26C118.05,183.19,120.62,189,123.61,183.2Z"/>
            <path class="cls-26" d="M123.61,183.2a58.09,58.09,0,0,0,2.54-6.16,49.47,49.47,0,0,1-21.34.28,37.59,37.59,0,0,1-.38,5.88c-.8,4.91,6.27-.19,9.95-.16S120.59,189,123.61,183.2Z"/>
          </g>
          <g>
            <path class="cls-24" d="M170.56,183c-3.84-7.82-13.19-41.85-19.1-70.35,6.75-4.59,38.35,28.05,45.7,33.21-7.73,10.3-9.29,29.26-8.07,37.14.77,5-6.06-.19-9.61-.16S173.48,188.92,170.56,183Z"/>
            <path class="cls-25" d="M189.09,183c.64,4.18-4,1.24-7.64.18.38-19.45-14-47.32-18.61-55.49,10.22,14.77,21.44,19,32.11,21.63C193.9,151.4,186.86,168.55,189.09,183Z"/>
            <path class="cls-26" d="M170.56,183a57.17,57.17,0,0,1-2.31-5.87,45.3,45.3,0,0,0,20.47-.49,41.13,41.13,0,0,0,.37,6.36c.77,5-6.06-.19-9.61-.16S173.48,188.92,170.56,183Z"/>
          </g>
          <g>
            <path class="cls-24" d="M211.38,124.6a2.06,2.06,0,1,1-.06,4.11c-7.29-.12,1.8,22.12,14.2,7.75,1.76-2,3.42-.39,1.65,1.66C209.1,159.06,195.61,124.35,211.38,124.6Z"/>
            <path class="cls-24" d="M192,135.46c-1.31-2.36,3.26-6,4.58-3.62,12,21.26,22.46-2.07,15-3.11-1.23-.17-2.28-.61-2.26-2.1a2.06,2.06,0,0,1,2.09-2C228.69,124.88,208.65,165,192,135.46Z"/>
            <path class="cls-25" d="M226.91,138.41c-13.17,14.92-23.84.34-22.35-8.36a1.05,1.05,0,0,0,.05.19c4.94,19.77,16.78,12,22.28,8.14Z"/>
            <path class="cls-25" d="M209.8,145.19c-4.32,2.22-9.8,1.49-15.16-5.69a1.79,1.79,0,0,1,.32.18C199.56,143.12,204.7,145.9,209.8,145.19Z"/>
          </g>
          <g>
            <path class="cls-24" d="M201.15,120.92c6.88,25.46-15.1,45.43-54.57,45.43-40.42,0-61.5-21.24-54.39-47.35C109.67,54.84,182.66,52.44,201.15,120.92Z"/>
            <path class="cls-25" d="M201.15,120.92c6.88,25.46-15.1,45.43-54.57,45.43-27.15,0-45.57-9.58-52.59-23.79,9.36,9,25,14.61,45.8,14.61,39.46,0,61.44-20,54.56-45.43a87.31,87.31,0,0,0-9.94-23.45C191.58,96.39,197.46,107.23,201.15,120.92Z"/>
            <path class="cls-27" d="M134.5,96c-2.23-4.38-9.65-4.38-11.88,0"/>
            <path class="cls-27" d="M158.67,96c2.23-4.38,9.65-4.38,11.88,0"/>
            <path class="cls-28" d="M146.14,111.56c13.89,0,25.15,4.16,25.15,16.24S160,149.66,146.14,149.66,121,139.87,121,127.8,132.25,111.56,146.14,111.56Z"/>
            <ellipse class="cls-29" cx="133.99" cy="128.45" rx="4.83" ry="4.79"/>
            <ellipse class="cls-29" cx="159.53" cy="128.73" rx="4.83" ry="4.79"/>
            <path class="cls-24" d="M220.52,59.61c-4.39,64.83-35.36,51.16-42.47,38.52-6.58-11.7-7.61-29.28,11.62-33.09C205.27,61.94,212,63,220.52,59.61Z"/>
            <path class="cls-30" d="M215.37,64.93c.39,19.1-9,47.29-25.26,33.11C172.43,82.61,197.64,63.58,215.37,64.93Z"/>
            <path class="cls-24" d="M72.48,59.61c4.39,64.83,35.36,51.16,42.47,38.52,6.58-11.7,7.61-29.28-11.62-33.09C87.74,61.94,81,63,72.48,59.61Z"/>
            <path class="cls-30" d="M77.63,64.93c-.39,19.1,9,47.29,25.27,33.11C120.57,82.61,95.37,63.58,77.63,64.93Z"/>
          </g>
          <g>
            <rect x="99.98" y="95.7" width="86.49" height="3.03"/>
            <path class="cls-31" d="M195.77,96.78c0,10.88-10.13,19.7-22.63,19.7s-22.64-8.82-22.64-19.7S195.77,85.9,195.77,96.78Z"/>
            <path class="cls-32" d="M140.41,96.78c0,10.88-10.14,19.7-22.64,19.7s-22.64-8.82-22.64-19.7S140.41,85.9,140.41,96.78Z"/>
          </g>
          <path class="cls-15" d="M105.38,95.14l.31-3.23.31,3.23a2.58,2.58,0,0,0,2.32,2.32l3.23.31-3.23.31A2.58,2.58,0,0,0,106,100.4l-.31,3.23-.31-3.23a2.58,2.58,0,0,0-2.32-2.32l-3.23-.31,3.23-.31A2.58,2.58,0,0,0,105.38,95.14Z"/>
        </g>
        <g>
          <path class="cls-15" d="M19.24,223.61a6.6,6.6,0,0,1,1.19,3.95,5.77,5.77,0,0,1-1.2,3.82,6.31,6.31,0,0,1-2,1.48,5.77,5.77,0,0,1,3,2.28,6.8,6.8,0,0,1,1,3.8,7.58,7.58,0,0,1-1.15,4.13,7.06,7.06,0,0,1-1.84,2,7.2,7.2,0,0,1-2.92,1.3,18.37,18.37,0,0,1-3.67.35H0V220.85H12.52Q17.26,220.93,19.24,223.61ZM5.17,225.35v5.71h6.29a5.23,5.23,0,0,0,2.75-.64,2.46,2.46,0,0,0,1-2.28,2.34,2.34,0,0,0-1.39-2.39,9.81,9.81,0,0,0-3.07-.4Zm0,10v6.91h6.29a6,6,0,0,0,2.62-.46,3.25,3.25,0,0,0,1.71-3.23,2.8,2.8,0,0,0-1.66-2.78,6.5,6.5,0,0,0-2.59-.44Z"/>
          <path class="cls-15" d="M30.5,227.6v11.55a6.19,6.19,0,0,0,.38,2.46,2.68,2.68,0,0,0,2.68,1.46,3.5,3.5,0,0,0,3.5-2.08,7.66,7.66,0,0,0,.49-3V227.6h5.08v19.16H37.76v-2.71c0,.06-.17.24-.35.53a3.53,3.53,0,0,1-.67.77,6.89,6.89,0,0,1-2.27,1.45,8,8,0,0,1-2.57.38c-2.82,0-4.73-1-5.71-3.06a11.69,11.69,0,0,1-.82-5V227.6Z"/>
          <path class="cls-15" d="M48.25,250.43l.63,0a9.21,9.21,0,0,0,1.41-.05,2.58,2.58,0,0,0,1.13-.41,2.68,2.68,0,0,0,.81-1.25,3,3,0,0,0,.33-1.16l-7-20h5.57l4.18,14.13,4-14.13h5.33L58,246.44q-1.91,5.46-3,6.76c-.73.88-2.21,1.31-4.43,1.31H49.47c-.27,0-.68,0-1.22-.06Z"/>
          <path class="cls-2" d="M69,246.76c-.9,0-1.3-.4-1.3-1.3V222.14c0-.9.4-1.3,1.3-1.3h5.79a1.71,1.71,0,0,1,1.66,1.08l3.24,5.87c.25.43.36.61.65.61h.32c.29,0,.4-.18.65-.61l3.2-5.87a1.71,1.71,0,0,1,1.66-1.08H92c.9,0,1.3.4,1.3,1.3v23.32c0,.9-.4,1.3-1.3,1.3H86.42c-.94,0-1.3-.4-1.3-1.3V232.79L83,236.72a1.88,1.88,0,0,1-1.91,1.15H79.65a1.88,1.88,0,0,1-1.91-1.15l-2.12-3.93v12.67c0,.9-.4,1.3-1.3,1.3Z"/>
          <path class="cls-2" d="M109,247.3c-9,0-11.2-3-11.2-7.34V227.68c0-4.39,2.2-7.38,11.2-7.38s11.15,3,11.15,7.38V240C120.18,244.35,118,247.3,109,247.3Zm0-7c2.62,0,3-.72,3-1.69V229c0-.94-.4-1.66-3-1.66s-3,.72-3,1.66v9.68C106,239.63,106.43,240.35,109,240.35Z"/>
          <path class="cls-2" d="M126.05,246.76c-.89,0-1.29-.4-1.29-1.3V222.14c0-.9.4-1.3,1.29-1.3h12c5.4,0,7.09,2.45,7.09,6v1.66c0,2-.5,3.46-2,4.1,2.62.29,4.35,2.2,4.35,5.22v7.63c0,.9-.39,1.3-1.29,1.3H140.6c-.9,0-1.3-.4-1.3-1.3V240c0-1.08-.36-1.55-1.37-1.55h-5v7.05c0,.9-.39,1.3-1.29,1.3Zm6.84-14.83h2.7c1.26,0,1.59-.72,1.59-1.69V229c0-1-.33-1.69-1.59-1.69h-2.7Z"/>
          <path class="cls-2" d="M152.8,246.76c-.9,0-1.29-.4-1.29-1.3V222.14c0-.9.39-1.3,1.29-1.3h16.7c.9,0,1.3.4,1.3,1.3v4.21c0,.9-.4,1.3-1.3,1.3h-9.93v2.77h7c.9,0,1.29.39,1.29,1.29v3.86c0,.9-.39,1.29-1.29,1.29h-7V240h9.93c.9,0,1.3.39,1.3,1.29v4.21c0,.9-.4,1.3-1.3,1.3Z"/>
          <path class="cls-15" d="M190.49,221.41a8.62,8.62,0,0,1,4.42,3.29,11.41,11.41,0,0,1,1.84,4.18,20,20,0,0,1,.5,4.29,17.26,17.26,0,0,1-2.08,8.76,9.37,9.37,0,0,1-8.69,4.83H175.31V220.85h11.17A13.57,13.57,0,0,1,190.49,221.41Zm-9.93,3.94v16.91h5a5.41,5.41,0,0,0,5.36-3.78,13.34,13.34,0,0,0,.82-4.94,12.09,12.09,0,0,0-1.24-6.07q-1.23-2.11-4.94-2.12Z"/>
          <path class="cls-15" d="M216.88,244.42q-2.43,3-7.36,3c-3.3,0-5.75-1-7.37-3a11.92,11.92,0,0,1,0-14.4c1.62-2,4.07-3,7.37-3s5.74,1,7.36,3a11.88,11.88,0,0,1,0,14.4Zm-4-2.77a8.94,8.94,0,0,0,0-8.88,4,4,0,0,0-3.37-1.55,4,4,0,0,0-3.39,1.55,8.94,8.94,0,0,0,0,8.88,4,4,0,0,0,3.39,1.56A4,4,0,0,0,212.87,241.65Z"/>
          <path class="cls-15" d="M228,246.76h-5V220.85h5Z"/>
          <path class="cls-15" d="M238,246.76h-5V220.85h5Z"/>
          <path class="cls-15" d="M250.49,235.11a8.33,8.33,0,0,0,2-.44,1.51,1.51,0,0,0,1.08-1.43,1.69,1.69,0,0,0-.83-1.62,5.2,5.2,0,0,0-2.43-.45,3.19,3.19,0,0,0-2.55.88,3.5,3.5,0,0,0-.71,1.75h-4.84a7.42,7.42,0,0,1,1.41-4.13c1.33-1.68,3.62-2.53,6.85-2.53a12.27,12.27,0,0,1,5.62,1.25q2.45,1.25,2.45,4.71v8.79c0,.61,0,1.35,0,2.22a2.64,2.64,0,0,0,.3,1.33,1.73,1.73,0,0,0,.73.58v.74h-5.45a5.87,5.87,0,0,1-.31-1.09,11.19,11.19,0,0,1-.14-1.16,10.5,10.5,0,0,1-2.41,1.92,7.26,7.26,0,0,1-3.67.93,6.36,6.36,0,0,1-4.33-1.49,5.27,5.27,0,0,1-1.7-4.21,5.44,5.44,0,0,1,2.74-5.11,12,12,0,0,1,4.43-1.23Zm3.06,2.33a6.31,6.31,0,0,1-1,.49,9.32,9.32,0,0,1-1.35.34l-1.14.21a7.54,7.54,0,0,0-2.3.69,2.27,2.27,0,0,0-1.18,2.12,2.23,2.23,0,0,0,.72,1.86,2.75,2.75,0,0,0,1.76.57,5.25,5.25,0,0,0,3-.95,4,4,0,0,0,1.44-3.46Z"/>
          <path class="cls-15" d="M273.56,227.15l.43,0v5.13c-.31,0-.59-.06-.84-.07l-.6,0c-2,0-3.37.66-4.06,2a7.63,7.63,0,0,0-.58,3.41v9.16h-5V227.6h4.78v3.34a10.36,10.36,0,0,1,2-2.62,5.52,5.52,0,0,1,3.65-1.18Z"/>
          <path class="cls-15" d="M280.81,240.64a3.38,3.38,0,0,0,.69,1.9c.63.67,1.78,1,3.46,1a5.2,5.2,0,0,0,2.36-.44,1.41,1.41,0,0,0,.88-1.31,1.44,1.44,0,0,0-.71-1.29,29.69,29.69,0,0,0-5.24-1.51,10.85,10.85,0,0,1-4.6-2,4.4,4.4,0,0,1-1.34-3.45A6,6,0,0,1,278.4,229a8.4,8.4,0,0,1,5.87-1.91,10.76,10.76,0,0,1,5.86,1.44q2.26,1.42,2.6,4.95h-5a3,3,0,0,0-.54-1.53,3.47,3.47,0,0,0-2.83-1,4,4,0,0,0-2.33.51,1.47,1.47,0,0,0-.7,1.19,1.31,1.31,0,0,0,.74,1.25,32.74,32.74,0,0,0,5.23,1.39,9.56,9.56,0,0,1,4.49,2.13,4.8,4.8,0,0,1,1.48,3.6,5.83,5.83,0,0,1-2.12,4.65q-2.13,1.8-6.57,1.8t-6.68-1.91a6.19,6.19,0,0,1-2.16-4.86Z"/>
        </g>
      </g>
    </g>
  </g>
</svg>
